# AST/ASF file generated using VICON BodyLanguage
# -----------------------------------------------
:version 1.10
:name VICON
:units
  mass 1.0
  length 0.45
  angle deg
:documentation
   .ast/.asf automatically generated from VICON data using
   VICON BodyBuilder and BodyLanguage model FoxedUp or BRILLIANT.MOD
:root
   order TX TY TZ RX RY RZ
   axis XYZ
   position 0 0 0  
   orientation 0 0 0 
:bonedata
  begin
     id 1 
     name lhipjoint
     direction 0.584852 -0.759097 0.285867 
     length 2.43633 
     axis 0 0 0  XYZ
  end
  begin
     id 2 
     name lfemur
     direction 0.34202 -0.939693 0  
     length 7.14704  
     axis 0 0 20  XYZ
    dof rx ry rz
    limits (-160.0 20.0)
           (-70.0 70.0)
           (-60.0 70.0)
  end
  begin
     id 3 
     name ltibia
     direction 0.342022 -0.939692 0   
     length 7.68483   
     axis 0 0 20   XYZ
    dof rx
    limits (-10.0 170.0)
  end
  begin
     id 4 
     name lfoot
     direction 0.0999605 -0.274639 0.956337   
     length 2.40452   
     axis -90 7.62852e-016 20   XYZ
    dof rx rz
    limits (-45.0 90.0)
           (-70.0 20.0)
  end
  begin
     id 5 
     name ltoes
     direction 1.53468e-011 -4.21881e-011 1   
     length 1.19837   
     axis -90 7.62852e-016 20   XYZ
    dof rx
    limits (-90.0 20.0)
  end
  begin
     id 6 
     name rhipjoint
     direction -0.569886 -0.769002 0.289597   
     length 2.40495  
     axis 0 0 0  XYZ 
  end
  begin
     id 7 
     name rfemur
     direction -0.34202 -0.939693 0   
     length 7.45086   
     axis 0 0 -20   XYZ
    dof rx ry rz
    limits (-160.0 20.0)
           (-70.0 70.0)
           (-70.0 60.0)
  end
  begin
     id 8 
     name rtibia
     direction -0.34202 -0.939693 0   
     length 7.76831   
     axis 0 0 -20   XYZ
    dof rx
    limits (-10.0 170.0)
 end
 begin
     id 9 
     name rfoot
     direction -0.0798572 -0.219406 0.97236   
     length 2.35911  
     axis -90 -7.62852e-016 -20   XYZ
    dof rx rz
    limits (-45.0 90.0)
           (-20.0 70.0)
  end
  begin
     id 10 
     name rtoes
     direction -1.53469e-011 -4.21728e-011 1   
     length 1.18261   
     axis -90 -7.62852e-016 -20   XYZ
    dof rx
    limits (-90.0 20.0)
  end
  begin
     id 11 
     name lowerback
     direction 0.0242088 0.999437 0.0232389   
     length 2.1561   
     axis 0 0 0   XYZ
    dof rx ry rz
    limits (-20.0 45.0)
           (-30.0 30.0)
           (-30.0 30.0)
  end
  begin
     id 12 
     name upperback
     direction -0.0356893 0.999013 -0.0264323   
     length 2.14431   
     axis 0 0 0   XYZ
    dof rx ry rz
    limits (-20.0 45.0)
           (-30.0 30.0)
           (-30.0 30.0)
  end
  begin
     id 13 
     name thorax
     direction -0.0472163 0.998194 -0.0371284   
     length 2.16169   
     axis 0 0 0   XYZ
    dof rx ry rz
    limits (-20.0 45.0)
           (-30.0 30.0)
           (-30.0 30.0)
  end
  begin
     id 14 
     name lowerneck
     direction 0.00863244 0.999921 0.00911972   
     length 1.58651   
     axis 0 0 0   XYZ
    dof rx ry rz
    limits (-20.0 45.0)
           (-30.0 30.0)
           (-30.0 30.0)
  end
  begin
     id 15 
     name upperneck
     direction 0.149523 0.979068 -0.138086   
     length 1.57486   
     axis 0 0 0   XYZ
    dof rx ry rz
    limits (-20.0 45.0)
           (-30.0 30.0)
           (-30.0 30.0)
  end
  begin
     id 16
     name head
     direction 0.0445219 0.997708 -0.0509576  
     length 1.6019  
     axis 0 0 0   XYZ
    dof rx ry rz
    limits (-20.0 45.0)
           (-30.0 30.0)
           (-30.0 30.0)
  end
  begin
     id 17 
     name lclavicle
     direction 0.911271 0.381667 -0.154644  
     length 3.80848  
     axis 0 0 0   XYZ
    dof ry rz
    limits (-20.0 10.0)
           (0.0 20.0)
  end
  begin
     id 18 
     name lhumerus
     direction 1 -4.49003e-011 2.1308e-027   
     length 5.19069   
     axis 180 -30 -90   XYZ
    dof rx ry rz
    limits (-60.0 90.0)
           (-90.0 90.0)
           (-90.0 90.0)
  end
  begin
     id 19
     name lradius
     direction 1 -4.48914e-011 4.01554e-027   
     length 3.30016   
     axis 180 -30 -90   XYZ
    dof rx
    limits (-10.0 170.0)
  end
  begin
     id 20
     name lwrist
     direction 1 -4.49003e-011 1.1934e-026   
     length 1.65008   
     axis -8.46377e-015 90 90   XYZ
    dof ry
    limits (-180.0 0.0)
 end
  begin
     id 21 
     name lhand
     direction 1 -4.49034e-011 2.38659e-026   
     length 0.707698   
     axis -1.52313e-014 90 90   XYZ
    dof rx rz
    limits (-90.0 90.0)
           (-45.0 45.0)
  end
  begin
     id 22 
     name lfingers
     direction 1 -4.48691e-011 4.77775e-026   
     length 0.570564   
     axis -3.04623e-014 90 90   XYZ
    dof rx
    limits (0.0 90.0)
  end
  begin
     id 23
     name lthumb
     direction 0.707107 -6.34832e-011 0.707107   
     length 0.819219   
     axis -90 45 -1.62303e-014   XYZ
    dof rx rz
    limits (-45.0 45.0)
           (-45.0 45.0)
  end
  begin
     id 24 
     name rclavicle
     direction -0.815579 0.573708 -0.0754329   
     length 3.54371  
     axis 0 0 0   XYZ 
    dof ry rz
    limits (-10.0 20.0)
           (-20.0 0.0)
  end
  begin
     id 25 
     name rhumerus
     direction -1 -4.48956e-011 3.05351e-028  
     length 5.23924   
     axis 180 30 90   XYZ
    dof rx ry rz
    limits (-90.0 60.0)
           (-90.0 90.0)
           (-90.0 90.0)
  end
  begin
     id 26 
     name rradius
     direction -1 -4.49013e-011 3.53849e-027   
     length 3.32953   
     axis 180 30 90   XYZ
    dof rx
    limits (-10.0 170.0)
  end
  begin
     id 27 
     name rwrist
     direction -1 -4.48901e-011 1.19374e-026   
     length 1.66477   
     axis -8.46377e-015 -90 -90   XYZ
    dof ry
    limits (-180.0 0.0)
  end
  begin
     id 28
     name rhand
     direction -1 -4.48877e-011 2.38764e-026   
     length 0.607414   
     axis -1.52313e-014 -90 -90   XYZ
    dof rx rz
    limits (-90.0 90.0)
           (-45.0 45.0)
  end
  begin
     id 29
     name rfingers
     direction -1 -4.48882e-011 4.77521e-026   
     length 0.489712   
     axis -3.04623e-014 -90 -90   XYZ
    dof rx
    limits (0.0 90.0)
  end
  begin
     id 30
     name rthumb
     direction -0.707107 -6.34974e-011 0.707107   
     length 0.703132   
     axis -90 -45 1.62303e-014   XYZ
    dof rx rz
    limits (-45.0 45.0)
           (-45.0 45.0)
  end
:hierarchy
  begin
    root lhipjoint rhipjoint lowerback
    lhipjoint lfemur
    lfemur ltibia
    ltibia lfoot
    lfoot ltoes
    rhipjoint rfemur
    rfemur rtibia
    rtibia rfoot
    rfoot rtoes
    lowerback upperback
    upperback thorax
    thorax lowerneck lclavicle rclavicle
    lowerneck upperneck
    upperneck head
    lclavicle lhumerus
    lhumerus lradius
    lradius lwrist
    lwrist lhand lthumb
    lhand lfingers
    rclavicle rhumerus
    rhumerus rradius
    rradius rwrist
    rwrist rhand rthumb
    rhand rfingers
  end

#!OML:ASF E:\VariousWalksJay\Project 1\Capture day 1\Session 1\Actor2.ASF
:FULLY-SPECIFIED
:DEGREES
145
root 15.4899 17.6057 -28.9241 2.42331 -8.00322 -3.4939
lowerback -5.9316 -1.36176 3.84441
upperback 2.33133 -2.10589 -0.593178
thorax 5.59901 -0.890268 -2.99926
lowerneck -0.422472 -11.2362 -12.5357
upperneck 1.31136 -15.6021 18.1455
head 2.92506 -7.71534 6.8332
rclavicle -1.27968e-014 1.55052e-014
rhumerus -34.1826 8.9007 -89.1428
rradius 30.637
rwrist -2.52494
rhand -10.1496 -7.38053
rfingers 7.12502
rthumb 15.8396 -36.7526
lclavicle -1.27968e-014 1.55052e-014
lhumerus -32.7989 -6.87978 84.9004
lradius 25.6438
lwrist 6.30769
lhand -6.8483 -4.55595
lfingers 7.12502
lthumb 19.0167 24.5344
rfemur -10.3765 -4.09033 25.1749
rtibia 33.0867
rfoot -24.2342 -9.8763
rtoes 0.113734
lfemur -7.72998 3.88145 -16.1312
ltibia 28.2488
lfoot -21.6096 8.5749
ltoes -8.14858
146
root 15.4895 17.6058 -28.9235 2.4289 -7.99956 -3.48863
lowerback -5.97173 -1.36331 3.85686
upperback 2.34565 -2.11069 -0.598743
thorax 5.63605 -0.89092 -3.01426
lowerneck -0.447272 -11.2331 -12.5317
upperneck 1.3226 -15.5974 18.1501
head 2.93187 -7.71145 6.8327
rclavicle 2.55935e-014 -1.70955e-014
rhumerus -34.1721 8.87815 -89.1434
rradius 30.5927
rwrist -2.51389
rhand -10.1507 -7.3797
rfingers 7.12502
rthumb 15.8386 -36.7518
lclavicle 2.55935e-014 -1.70955e-014
lhumerus -32.7953 -6.86298 84.9014
lradius 25.6055
lwrist 6.28019
lhand -6.83805 -4.55594
lfingers 7.12502
lthumb 19.0266 24.5334
rfemur -10.3806 -4.09381 25.1702
rtibia 33.0845
rfoot -24.2362 -9.87272
rtoes 0.114201
lfemur -7.72872 3.88189 -16.135
ltibia 28.2367
lfoot -21.6068 8.57145
ltoes -8.14546
147
root 15.4892 17.6059 -28.923 2.43564 -7.99924 -3.48567
lowerback -6.00659 -1.36153 3.8713
upperback 2.3579 -2.11093 -0.604551
thorax 5.66821 -0.889388 -3.02996
lowerneck -0.46866 -11.2323 -12.5237
upperneck 1.3363 -15.5963 18.1515
head 2.93877 -7.70947 6.8304
rclavicle -1.20016e-014 4.37326e-015
rhumerus -34.1653 8.85068 -89.1438
rradius 30.5552
rwrist -2.50382
rhand -10.1564 -7.37254
rfingers 7.12502
rthumb 15.8331 -36.7451
lclavicle -1.20016e-014 4.37326e-015
lhumerus -32.7893 -6.85503 84.9032
lradius 25.5613
lwrist 6.25747
lhand -6.8366 -4.55561
lfingers 7.12502
lthumb 19.028 24.5336
rfemur -10.3862 -4.09642 25.1675
rtibia 33.0825
rfoot -24.2372 -9.86651
rtoes 0.120483
lfemur -7.72874 3.88195 -16.137
ltibia 28.2255
lfoot -21.6057 8.57024
ltoes -8.13525
148
root 15.4889 17.6061 -28.9226 2.44418 -8.00195 -3.48365
lowerback -6.0388 -1.3609 3.88379
upperback 2.36343 -2.11244 -0.607563
thorax 5.69184 -0.888922 -3.04152
lowerneck -0.492895 -11.2296 -12.5191
upperneck 1.36146 -15.5934 18.1471
head 2.94894 -7.7062 6.82659
rclavicle -4.86029e-014 2.0276e-014
rhumerus -34.1705 8.83431 -89.1459
rradius 30.524
rwrist -2.49871
rhand -10.1567 -7.37111
rfingers 7.12502
rthumb 15.8327 -36.7437
lclavicle -4.86029e-014 2.0276e-014
lhumerus -32.7963 -6.8372 84.9047
lradius 25.5188
lwrist 6.23497
lhand -6.83938 -4.55233
lfingers 7.12502
lthumb 19.0253 24.5372
rfemur -10.394 -4.09689 25.1658
rtibia 33.0808
rfoot -24.2369 -9.86075
rtoes 0.124282
lfemur -7.73054 3.88222 -16.1384
ltibia 28.2148
lfoot -21.6063 8.56975
ltoes -8.12177
149
root 15.4887 17.6062 -28.9224 2.4528 -8.00943 -3.48039
lowerback -6.06549 -1.35832 3.89476
upperback 2.36758 -2.11094 -0.611174
thorax 5.71112 -0.887139 -3.05233
lowerneck -0.512315 -11.227 -12.5135
upperneck 1.38418 -15.5908 18.1429
head 2.95758 -7.70341 6.823
rclavicle -3.23025e-016 -4.77083e-015
rhumerus -34.1758 8.81715 -89.1479
rradius 30.4967
rwrist -2.49418
rhand -10.1749 -7.39656
rfingers 7.12502
rthumb 15.8152 -36.7706
lclavicle -3.23025e-016 -4.77083e-015
lhumerus -32.8008 -6.8179 84.9035
lradius 25.4733
lwrist 6.21284
lhand -6.84166 -4.55475
lfingers 7.12502
lthumb 19.0231 24.535
rfemur -10.4033 -4.09678 25.1621
rtibia 33.0799
rfoot -24.2357 -9.85295
rtoes 0.128238
lfemur -7.73252 3.8823 -16.1422
ltibia 28.2045
lfoot -21.6079 8.57363
ltoes -8.10822
150
root 15.4885 17.6064 -28.9222 2.46211 -8.01578 -3.47833
lowerback -6.08592 -1.35523 3.90394
upperback 2.37094 -2.1084 -0.613263
thorax 5.72619 -0.88506 -3.0602
lowerneck -0.562501 -11.2306 -12.4996
upperneck 1.42276 -15.5954 18.1273
head 2.97545 -7.70227 6.81167
rclavicle -1.14053e-014 3.57812e-015
rhumerus -34.178 8.79774 -89.1469
rradius 30.4712
rwrist -2.49037
rhand -10.186 -7.40247
rfingers 7.12502
rthumb 15.8045 -36.7773
lclavicle -1.14053e-014 3.57812e-015
lhumerus -32.8001 -6.8 84.903
lradius 25.4252
lwrist 6.19359
lhand -6.84916 -4.55197
lfingers 7.12502
lthumb 19.0159 24.5385
rfemur -10.4134 -4.09603 25.1604
rtibia 33.0792
rfoot -24.2353 -9.84896
rtoes 0.131467
lfemur -7.73566 3.881 -16.1443
ltibia 28.195
lfoot -21.6107 8.57635
ltoes -8.09125
151
root 15.4882 17.6065 -28.9221 2.47192 -8.02224 -3.47634
lowerback -6.1032 -1.35244 3.91034
upperback 2.37215 -2.10593 -0.613949
thorax 5.73733 -0.883279 -3.06489
lowerneck -0.594728 -11.232 -12.489
upperneck 1.45489 -15.5977 18.1125
head 2.98841 -7.70106 6.80263
rclavicle 7.23079e-015 -1.59028e-015
rhumerus -34.1819 8.77915 -89.1446
rradius 30.4483
rwrist -2.48593
rhand -10.2165 -7.44292
rfingers 7.12502
rthumb 15.7751 -36.8201
lclavicle 7.23079e-015 -1.59028e-015
lhumerus -32.8005 -6.77693 84.9011
lradius 25.375
lwrist 6.1739
lhand -6.85658 -4.5578
lfingers 7.12502
lthumb 19.0088 24.5333
rfemur -10.4242 -4.09503 25.1592
rtibia 33.0788
rfoot -24.2351 -9.84523
rtoes 0.138283
lfemur -7.74017 3.88031 -16.146
ltibia 28.1862
lfoot -21.6138 8.57674
ltoes -8.07021
152
root 15.488 17.6066 -28.9222 2.4811 -8.03032 -3.47479
lowerback -6.11758 -1.34888 3.91648
upperback 2.37526 -2.10234 -0.614709
thorax 5.7489 -0.880909 -3.06934
lowerneck -0.631431 -11.2352 -12.4752
upperneck 1.48627 -15.6018 18.0953
head 3.0017 -7.70054 6.79186
rclavicle -2.06239e-015 1.98785e-015
rhumerus -34.1799 8.75885 -89.1411
rradius 30.4259
rwrist -2.47935
rhand -10.2385 -7.4784
rfingers 7.12502
rthumb 15.754 -36.8572
lclavicle -2.06239e-015 1.98785e-015
lhumerus -32.7933 -6.75023 84.8955
lradius 25.3234
lwrist 6.15419
lhand -6.86081 -4.55718
lfingers 7.12502
lthumb 19.0047 24.5344
rfemur -10.4349 -4.09556 25.1581
rtibia 33.0782
rfoot -24.2339 -9.8399
rtoes 0.140542
lfemur -7.74494 3.88127 -16.1474
ltibia 28.1791
lfoot -21.6168 8.57689
ltoes -8.04942
153
root 15.4877 17.6067 -28.9224 2.49091 -8.03566 -3.47504
lowerback -6.12504 -1.34711 3.92047
upperback 2.37239 -2.10067 -0.612928
thorax 5.75021 -0.879975 -3.06974
lowerneck -0.645364 -11.232 -12.4718
upperneck 1.51548 -15.5995 18.0868
head 3.01116 -7.69802 6.78752
rclavicle -1.35422e-014 9.54166e-015
rhumerus -34.1857 8.73974 -89.1367
rradius 30.4042
rwrist -2.46732
rhand -10.2548 -7.50132
rfingers 7.12502
rthumb 15.7383 -36.8814
lclavicle -1.35422e-014 9.54166e-015
lhumerus -32.7962 -6.71814 84.8909
lradius 25.2742
lwrist 6.13509
lhand -6.86862 -4.54978
lfingers 7.12502
lthumb 18.9972 24.5425
rfemur -10.4459 -4.09654 25.1595
rtibia 33.0774
rfoot -24.2341 -9.83459
rtoes 0.149707
lfemur -7.75236 3.87955 -16.1465
ltibia 28.1739
lfoot -21.6191 8.5769
ltoes -8.02887
154
root 15.4874 17.6068 -28.9227 2.50062 -8.04253 -3.47683
lowerback -6.14075 -1.34488 3.92749
upperback 2.37657 -2.09906 -0.612447
thorax 5.76354 -0.878518 -3.07366
lowerneck -0.65031 -11.2262 -12.4678
upperneck 1.53674 -15.5936 18.082
head 3.01651 -7.69435 6.7853
rclavicle -7.20594e-016 -1.19271e-015
rhumerus -34.1782 8.72226 -89.1345
rradius 30.3816
rwrist -2.45304
rhand -10.2574 -7.53589
rfingers 7.12502
rthumb 15.7358 -36.9162
lclavicle -7.20594e-016 -1.19271e-015
lhumerus -32.7862 -6.68217 84.8793
lradius 25.2233
lwrist 6.11202
lhand -6.87324 -4.54336
lfingers 7.12502
lthumb 18.9927 24.5494
rfemur -10.4575 -4.09991 25.1622
rtibia 33.0762
rfoot -24.2334 -9.82628
rtoes 0.155327
lfemur -7.76127 3.88035 -16.144
ltibia 28.1712
lfoot -21.6206 8.57573
ltoes -8.00971
155
root 15.4872 17.6069 -28.9233 2.50923 -8.04518 -3.47979
lowerback -6.15109 -1.34642 3.93225
upperback 2.37564 -2.10215 -0.608864
thorax 5.76821 -0.879824 -3.07325
lowerneck -0.632058 -11.2116 -12.4737
upperneck 1.55766 -15.5778 18.0812
head 3.01747 -7.68697 6.78827
rclavicle 1.06847e-014 -2.78299e-015
rhumerus -34.1825 8.71864 -89.1349
rradius 30.3652
rwrist -2.44066
rhand -10.2475 -7.55925
rfingers 7.12502
rthumb 15.7453 -36.9388
lclavicle 1.06847e-014 -2.78299e-015
lhumerus -32.788 -6.6366 84.8685
lradius 25.176
lwrist 6.08837
lhand -6.87908 -4.52917
lfingers 7.12502
lthumb 18.9871 24.5641
rfemur -10.4677 -4.10568 25.1665
rtibia 33.0746
rfoot -24.2353 -9.81773
rtoes 0.173932
lfemur -7.77151 3.88006 -16.1396
ltibia 28.1713
lfoot -21.6224 8.57075
ltoes -7.98972
156
root 15.487 17.6069 -28.924 2.51594 -8.04781 -3.4838
lowerback -6.15609 -1.35083 3.9357
upperback 2.37055 -2.10877 -0.602855
thorax 5.76527 -0.883232 -3.06965
lowerneck -0.61557 -11.1892 -12.4812
upperneck 1.59344 -15.5524 18.0736
head 3.0211 -7.6745 6.78998
rclavicle -3.42904e-015 1.43125e-014
rhumerus -34.1927 8.72508 -89.1374
rradius 30.3483
rwrist -2.42459
rhand -10.2169 -7.57237
rfingers 7.12502
rthumb 15.7748 -36.9496
lclavicle -3.42904e-015 1.43125e-014
lhumerus -32.8014 -6.57834 84.8562
lradius 25.1311
lwrist 6.06002
lhand -6.88293 -4.51052
lfingers 7.12502
lthumb 18.9834 24.5831
rfemur -10.4761 -4.11311 25.1717
rtibia 33.0731
rfoot -24.2374 -9.80794
rtoes 0.191061
lfemur -7.78135 3.87901 -16.1341
ltibia 28.174
lfoot -21.6233 8.56741
ltoes -7.97425
157
root 15.4867 17.6069 -28.925 2.5194 -8.05106 -3.49023
lowerback -6.15109 -1.35563 3.93876
upperback 2.36361 -2.11552 -0.594825
thorax 5.75474 -0.886985 -3.06335
lowerneck -0.608655 -11.1605 -12.4821
upperneck 1.64777 -15.5192 18.0518
head 3.02871 -7.65727 6.78611
rclavicle -1.64494e-014 -2.38542e-015
rhumerus -34.2065 8.73798 -89.1412
rradius 30.3356
rwrist -2.40941
rhand -10.1609 -7.5728
rfingers 7.12502
rthumb 15.8287 -36.9457
lclavicle -1.64494e-014 -2.38542e-015
lhumerus -32.8177 -6.51594 84.8436
lradius 25.0852
lwrist 6.0238
lhand -6.88543 -4.49487
lfingers 7.12502
lthumb 18.981 24.599
rfemur -10.4815 -4.11874 25.1798
rtibia 33.0721
rfoot -24.2417 -9.7996
rtoes 0.212187
lfemur -7.78922 3.87761 -16.1255
ltibia 28.1789
lfoot -21.6251 8.56425
ltoes -7.96345
158
root 15.4865 17.6068 -28.9262 2.52157 -8.05616 -3.49737
lowerback -6.13456 -1.3592 3.93992
upperback 2.35249 -2.11998 -0.585205
thorax 5.73351 -0.89005 -3.05359
lowerneck -0.659408 -11.1277 -12.4642
upperneck 1.7545 -15.4799 17.9995
head 3.05618 -7.63311 6.766
rclavicle 1.59028e-015 -2.0276e-014
rhumerus -34.2262 8.75308 -89.1447
rradius 30.328
rwrist -2.39543
rhand -10.0851 -7.55841
rfingers 7.12502
rthumb 15.9017 -36.9255
lclavicle 1.59028e-015 -2.0276e-014
lhumerus -32.8412 -6.45561 84.8337
lradius 25.0416
lwrist 5.98366
lhand -6.88841 -4.49267
lfingers 7.12502
lthumb 18.9781 24.6015
rfemur -10.486 -4.12189 25.189
rtibia 33.0725
rfoot -24.2478 -9.79193
rtoes 0.236348
lfemur -7.79677 3.87929 -16.1156
ltibia 28.1858
lfoot -21.627 8.55845
ltoes -7.95351
159
root 15.4862 17.6066 -28.9276 2.52091 -8.06643 -3.5032
lowerback -6.11594 -1.36118 3.94056
upperback 2.34361 -2.12216 -0.576512
thorax 5.71363 -0.891923 -3.04423
lowerneck -0.745299 -11.0824 -12.4295
upperneck 1.90094 -15.4239 17.9218
head 3.09502 -7.5981 6.73427
rclavicle 8.87077e-015 7.15625e-015
rhumerus -34.2418 8.77186 -89.1503
rradius 30.3238
rwrist -2.38202
rhand -10.0011 -7.5553
rfingers 7.12502
rthumb 15.9826 -36.916
lclavicle 8.87077e-015 7.15625e-015
lhumerus -32.863 -6.39963 84.8241
lradius 25
lwrist 5.94445
lhand -6.89576 -4.49776
lfingers 7.12502
lthumb 18.9711 24.5971
rfemur -10.4893 -4.12178 25.1965
rtibia 33.0747
rfoot -24.254 -9.78431
rtoes 0.260684
lfemur -7.80232 3.88352 -16.1074
ltibia 28.1938
lfoot -21.6289 8.55452
ltoes -7.94646
